<?xml version="1.0" encoding="utf-8"?><svg version="1.1" xmlns="http://www.w3.org/2000/svg" xmlns:xlink="http://www.w3.org/1999/xlink" viewBox="0 0 512 512"><style>ellipse,path{fill:black;} @media(prefers-color-scheme:dark){ellipse,path{fill:white;}}</style><g><ellipse transform="matrix(0.3827 -0.9239 0.9239 0.3827 56.4568 421.3868)" cx="343.553" cy="168.447" rx="29.184" ry="29.184"/><path d="M400.339,0H111.661C49.992,0,0,49.992,0,111.661v288.677C0,462.008,49.992,512,111.661,512h288.677 C462.008,512,512,462.008,512,400.339V111.661C512,49.992,462.008,0,400.339,0z M314.369,326.043 c-13.644,0-26.85-2.116-39.18-6.056l-24.296,24.296c-3.283,3.283-7.734,5.107-12.403,5.107h-29.184v29.184 c0,9.704-7.807,17.511-17.511,17.511H162.61v29.184c0,9.704-7.807,17.511-17.511,17.511H86.73c-9.704,0-17.511-7.807-17.511-17.511 v-58.369c0-4.67,1.824-9.12,5.107-12.403l117.686-117.686c-3.94-12.33-6.056-25.536-6.056-39.18 c0-70.918,57.493-128.412,128.412-128.412S442.78,126.713,442.78,197.631S385.287,326.043,314.369,326.043z"/></g></svg>
