<?xml version="1.0" encoding="UTF-8"?><svg xmlns="http://www.w3.org/2000/svg" viewBox="0 0 2000.84 644"><path class="cls-1" d="m1803.16,268.03c-18.08,0-33.12,7.03-45.12,21.08-12,14.06-17.99,35.41-17.99,64.05s4.65,51.39,13.96,65.53c13.07,20.05,30.43,30.08,52.1,30.08,16.65,0,30.84-7.12,42.57-21.35,11.72-14.23,17.59-36.66,17.59-67.27,0-32.58-5.91-56.08-17.72-70.5-11.82-14.41-26.95-21.62-45.39-21.62ZM1949.5,0h-927.37c-28.35,0-51.34,22.98-51.34,51.34v541.32c0,28.35,22.98,51.34,51.34,51.34h927.37c28.35,0,51.34-22.98,51.34-51.34V51.34c0-28.35-22.98-51.34-51.34-51.34Zm-627.66,501.95h-75.46v-150.66c0-29.9-1.44-48.88-4.3-56.93-2.87-8.06-7.92-14.46-15.17-19.2-7.25-4.74-16.34-7.12-27.26-7.12-12.53,0-23.72,3.05-33.57,9.13-9.85,6.09-17.05,15.27-21.62,27.53-4.57,12.27-6.85,30.39-6.85,54.38v142.87h-75.46V108.24h75.46v144.75c24.35-28.47,53.44-42.7,87.28-42.7,17.36,0,33.03,3.22,47,9.67s24.48,14.68,31.56,24.71c7.07,10.03,11.9,21.13,14.5,33.3,2.59,12.18,3.89,31.06,3.89,56.67v167.31Zm301.35,0h-70.09v-42.7c-10.39,15.22-24.04,27.22-40.95,35.99-16.92,8.77-34.78,13.16-53.58,13.16s-36.35-4.21-51.56-12.62c-15.22-8.41-26.23-20.23-33.03-35.45-6.81-15.21-10.21-36.25-10.21-63.11v-180.47h75.46v131.06c0,40.11,1.38,64.68,4.16,73.72,2.77,9.04,7.83,16.21,15.17,21.48,7.34,5.28,16.65,7.92,27.93,7.92,12.89,0,24.44-3.53,34.64-10.61,10.21-7.07,17.19-15.85,20.95-26.32,3.76-10.47,5.64-36.12,5.64-76.94v-120.31h75.46v285.21Zm285.64-33.03c-23.19,26.32-51.34,39.48-84.46,39.48-16.29,0-32.36-4.07-48.21-12.22-15.85-8.15-29.5-20.18-40.96-36.12v41.89h-70.09V108.24h75.46v141.8c23.27-26.49,50.84-39.75,82.71-39.75,34.73,0,63.47,12.58,86.21,37.73,22.74,25.16,34.11,61.28,34.11,108.36s-11.59,86.21-34.78,112.52Z"/><g><path class="cls-1" d="m0,501.95V108.24h79.49v174.83L240.09,108.24h106.88l-148.24,153.34,156.3,240.36h-102.86l-108.23-184.77-64.45,65.8v118.97H0Z"/><path class="cls-1" d="m527.74,411.17l75.2,12.62c-9.67,27.57-24.93,48.57-45.79,62.98-20.86,14.41-46.96,21.62-78.28,21.62-49.59,0-86.3-16.2-110.11-48.61-18.8-25.96-28.2-58.72-28.2-98.29,0-47.27,12.35-84.28,37.06-111.05,24.71-26.76,55.95-40.15,93.73-40.15,42.43,0,75.91,14.01,100.44,42.03,24.53,28.02,36.25,70.94,35.18,128.77h-189.06c.54,22.38,6.62,39.79,18.26,52.23,11.64,12.45,26.14,18.66,43.51,18.66,11.82,0,21.75-3.22,29.81-9.67s14.14-16.83,18.26-31.15Zm4.3-76.27c-.54-21.84-6.18-38.45-16.92-49.82-10.74-11.37-23.81-17.05-39.21-17.05-16.47,0-30.08,6-40.82,17.99-10.74,12-16.03,28.29-15.84,48.88h112.79Z"/><path class="cls-1" d="m599.75,216.74h80.3l68.21,202.49,66.6-202.49h78.15l-100.71,274.46-17.99,49.68c-6.63,16.65-12.94,29.36-18.93,38.13-6,8.77-12.89,15.89-20.68,21.35-7.79,5.46-17.37,9.71-28.74,12.76-11.37,3.04-24.22,4.57-38.54,4.57s-28.74-1.52-42.7-4.57l-6.71-59.08c11.82,2.32,22.47,3.49,31.96,3.49,17.54,0,30.52-5.15,38.94-15.44,8.41-10.3,14.86-23.41,19.34-39.34l-108.5-286.01Z"/></g></svg>
